<svg xmlns="http://www.w3.org/2000/svg" width="24" height="24" viewBox="0 0 24 24" fill="none" stroke="white" stroke-width="1.5" stroke-linecap="round" stroke-linejoin="round">
  <path d="M6 3.5 L18 3.5 L22 10 L12 21 L2 10 Z" />
  <path d="M11 12.5 C10 12.5, 9.5 13, 9.5 14 C9.5 15, 10 15.5, 11 15.5 M9 13.5 H12 M9 14.5 H12" />
  <path d="M3.5 15.5 L4.5 16.5 M3.5 16.5 L4.5 15.5 M4 15 V17 M3 16 H5" stroke-width="1" />
  <path d="M19.5 5.5 L20.5 6.5 M19.5 6.5 L20.5 5.5 M20 5 V7 M19 6 H21" stroke-width="1" />
</svg>