<svg version="1.1" id="Layer_1" xmlns="http://www.w3.org/2000/svg" xmlns:xlink="http://www.w3.org/1999/xlink" x="0px" y="0px" viewBox="0 0 24 24" style="enable-background:new 0 0 24 24;" xml:space="preserve">
<defs>
<linearGradient id="gradient0" x1="0%" y1="0%" x2="100%" y2="100%">
<stop offset="0%" style="stop-color:#FBBF24;stop-opacity:1" />
<stop offset="100%" style="stop-color:#D97706;stop-opacity:1" />
</linearGradient>
<filter id="dropshadow" x="-2" y="-2" width="28" height="28">
<feGaussianBlur in="SourceAlpha" stdDeviation="1.5"/>
<feOffset dx="1" dy="1" result="offsetblur"/>
<feComponentTransfer>
<feFuncA type="linear" slope="0.5"/>
</feComponentTransfer>
<feMerge> 
<feMergeNode in="offsetblur"/>
<feMergeNode in="SourceGraphic"/>
</feMerge>
</filter>
</defs>
<g filter="url(#dropshadow)">
<path fill="url(#gradient0)" d="M12,2L2,12l10,10l10-10L12,2z M12,4.8l7.2,7.2l-7.2,7.2L4.8,12L12,4.8z"/>
<path fill="#F59E0B" d="M12,6.4c-1.8,0-3.3,1.1-3.9,2.6h2.1c0.3-0.5,0.9-0.8,1.8-0.8c1.3,0,2.1,0.9,2.1,2v0.8H8.8V12h5.3v0.8c0,1.1-0.8,2-2.1,2c-0.8,0-1.5-0.3-1.8-0.8H8.1c0.6,1.5,2.1,2.6,3.9,2.6c2.4,0,4.2-1.8,4.2-4.2V10.6C16.2,8.2,14.4,6.4,12,6.4z"/>
</g>
<g style="opacity:0.5;">
<path fill="#FFFFFF" d="M11.9,4l8.1,8.1l-8.1,8.1L3.8,12L11.9,4 M11.9,2l-10,10l10,10l10-10L11.9,2z"/>
</g>
</svg>