<svg width="24" height="24" viewBox="0 0 24 24" fill="none" xmlns="http://www.w3.org/2000/svg">
<path d="M12 2C6.48 2 2 6.48 2 12C2 17.52 6.48 22 12 22C17.52 22 22 17.52 22 12C22 6.48 17.52 2 12 2Z" stroke="white" stroke-width="1.5" stroke-miterlimit="10" stroke-linecap="round" stroke-linejoin="round"/>
<path d="M12 6V2.5M12 21.5V18M6 12H2.5M21.5 12H18M18.36 5.64L20.84 3.16M3.16 20.84L5.64 18.36M18.36 18.36L20.84 20.84M3.16 3.16L5.64 5.64" stroke="white" stroke-width="1.5" stroke-linecap="round" stroke-linejoin="round"/>
<path d="M12 16.5L9.36 17.9L9.86 14.96L7.72 12.87L10.68 12.44L12 9.75L13.32 12.44L16.28 12.87L14.14 14.96L14.64 17.9L12 16.5Z" stroke="white" stroke-width="1.5" stroke-linecap="round" stroke-linejoin="round"/>
</svg>