<svg version="1.1" xmlns="http://www.w3.org/2000/svg" xmlns:xlink="http://www.w3.org/1999/xlink" width="24px" height="24px" viewBox="0 0 24 24" enable-background="new 0 0 24 24" xml:space="preserve">
<g>
	<defs>
		<linearGradient id="SVGID_1_" gradientUnits="userSpaceOnUse" x1="10.875" y1="18.125" x2="3.125" y2="10.375">
			<stop offset="0" style="stop-color:#F59E0B"/>
			<stop offset="0.3204" style="stop-color:#F9A10D"/>
			<stop offset="0.6713" style="stop-color:#FAA70E"/>
			<stop offset="1" style="stop-color:#FBBF24"/>
		</linearGradient>
	</defs>
	<path fill-rule="evenodd" clip-rule="evenodd" fill="url(#SVGID_1_)" d="M12,18v-5.06c0.65,0.42,1.26,0.92,1.82,1.48
		C13.26,14.98,12.65,15.48,12,18z M12,12.94V7.88c0.65,0.42,1.26,0.92,1.82,1.48C13.26,9.8,12.65,10.3,12,12.94z M12,7.82V2.76
		c0.65,0.42,1.26,0.92,1.82,1.48C13.26,4.68,12.65,5.18,12,7.82z M8,12.94V7.88c0.65,0.42,1.26,0.92,1.82,1.48
		C9.26,9.8,8.65,10.3,8,12.94z M8,7.82V2.76c0.65,0.42,1.26,0.92,1.82,1.48C9.26,4.68,8.65,5.18,8,7.82z M4,7.82V2.76
		c0.65,0.42,1.26,0.92,1.82,1.48C5.26,4.68,4.65,5.18,4,7.82z M12,21c-4.97,0-9-4.03-9-9s4.03-9,9-9s9,4.03,9,9S16.97,21,12,21z
		 M12,19.25c4.01,0,7.25-3.24,7.25-7.25S16.01,4.75,12,4.75S4.75,7.99,4.75,12S7.99,19.25,12,19.25z"/>
</g>
<g>
	<defs>
		<linearGradient id="SVGID_2_" gradientUnits="userSpaceOnUse" x1="16.9247" y1="12.0753" x2="23.0753" y2="5.9247">
			<stop offset="0" style="stop-color:#F59E0B"/>
			<stop offset="1" style="stop-color:#FBBF24"/>
		</linearGradient>
	</defs>
	<circle fill="url(#SVGID_2_)" cx="20" cy="9" r="4"/>
</g>
<g>
	<defs>
		<linearGradient id="SVGID_3_" gradientUnits="userSpaceOnUse" x1="16.9247" y1="12.0753" x2="23.0753" y2="5.9247">
			<stop offset="0" style="stop-color:#F59E0B"/>
			<stop offset="1" style="stop-color:#FBBF24"/>
		</linearGradient>
	</defs>
	<path fill="url(#SVGID_3_)" d="M21.5,13h-3c-0.28,0-0.5-0.22-0.5-0.5v-7c0-0.28,0.22-0.5,0.5-0.5h3c0.28,0,0.5,0.22,0.5,0.5v7
		C22,12.78,21.78,13,21.5,13z M19,12h2V6h-2V12z"/>
</g>
<g>
	<defs>
		<linearGradient id="SVGID_4_" gradientUnits="userSpaceOnUse" x1="16.9247" y1="12.0753" x2="23.0753" y2="5.9247">
			<stop offset="0" style="stop-color:#F59E0B"/>
			<stop offset="1" style="stop-color:#FBBF24"/>
		</linearGradient>
	</defs>
	<path fill="url(#SVGID_4_)" d="M23.5,13h-7c-0.28,0-0.5-0.22-0.5-0.5v-1c0-0.28,0.22-0.5,0.5-0.5h7c0.28,0,0.5,0.22,0.5,0.5v1
		C24,12.78,23.78,13,23.5,13z M17,12h6v0H17V12z"/>
</g>
</svg>