<svg xmlns="http://www.w3.org/2000/svg" width="24" height="24" viewBox="0 0 24 24" fill="none">
    <path d="M12.6019 2C12.6019 2 13.9213 4.2 13.9213 6.6C13.9213 8.32 12.8241 10 11.2871 10C12.3843 10 13.7019 11.2 13.7019 12.8C13.7019 14.72 12.0306 16.4 10.0537 16.4M12 21.2C15.9765 21.2 19.2 17.9765 19.2 14C19.2 11.12 17.22 8.58333 14.8 7M12 21.2C8.02355 21.2 4.8 17.9765 4.8 14C4.8 11.12 6.78 8.58333 9.2 7M12 21.2C9.05248 21.2 6.66667 18.8142 6.66667 15.8667C6.66667 13.7156 8.35111 11.8133 10.0537 10.6" stroke="white" stroke-width="1.5" stroke-linecap="round" stroke-linejoin="round"/>
</svg>